Patient4_TMGait_0pt4_02_left_06_GRF.mot
version=1
nRows=26
nColumns=19
inDegrees=no
endheader
time	F1x	F1y	F1z	M1x	M1y	M1z	F2x	F2y	F2z	M2x	M2y	M2z	EC1x	EC1y	EC1z	EC2x	EC2y	EC2z
8.06	3.0711	23.0273	-2.0634	-5.9574	0.18774	34.1448	-31.3068	761.4116	-72.44	297.8284	92.5912	842.7747	-0.0592	0.0182	-0.0073	-0.0462	0.0165	0.9585
8.0734	2.1157	16.3635	-1.3997	-4.3041	0.12684	24.0771	-29.7196	743.9396	-69.7579	290.3833	88.5712	820.4589	-0.0592	0.0182	-0.0073	-0.0462	0.0165	0.9585
8.0867	1.3128	10.7965	-0.83103	-2.9268	0.070804	15.6178	-27.486	726.3127	-67.2672	282.8439	84.4764	797.5249	-0.0592	0.0182	-0.0073	-0.0462	0.0165	0.9585
8.1001	0.71204	6.6197	-0.386	-1.9005	0.017432	9.2395	-24.6722	710.823	-65.1868	276.1603	80.591	776.5342	-0.0592	0.0182	-0.0073	-0.0462	0.0165	0.9585
8.1134	0.2896	3.7828	-0.069898	-1.2104	-0.029204	4.9002	-21.4242	699.6274	-63.5892	271.228	77.0713	759.8471	-0.0592	0.0182	-0.0073	-0.0462	0.0165	0.9585
8.1268	0.009698	2.0641	0.13588	-0.79593	-0.072092	2.2644	-17.8801	694.364	-62.447	268.7331	73.9624	749.2184	-0.0592	0.0182	-0.0073	-0.0462	0.0165	0.9585
8.1401	-0.16132	1.1654	0.2548	-0.57601	-0.11151	0.86822	-14.1542	695.8397	-61.6724	269.0241	71.2207	745.4863	-0.0592	0.0182	-0.0073	-0.0462	0.0165	0.9585
8.1535	-0.26911	0.76139	0.31482	-0.46376	-0.1581	0.24757	-10.3148	703.8858	-61.1629	272.0473	68.7572	748.4468	-0.0592	0.0182	-0.0073	-0.0462	0.0165	0.9585
8.1669	-0.34011	0.53423	0.34367	-0.37436	-0.22082	-0.047046	-6.3932	717.3917	-60.819	277.3589	66.4703	756.9223	-0.0592	0.0182	-0.0073	-0.0462	0.0165	0.9585
8.1802	-0.41001	0.22794	0.36809	-0.23616	-0.31343	-0.36697	-2.4338	734.4614	-60.559	284.192	64.2763	768.9583	-0.0592	0.0182	-0.0073	-0.0462	0.0165	0.9585
8.1936	-0.48203	-0.38636	0.40075	0.015207	-0.43297	-1.0162	1.5224	752.6525	-60.3164	291.5574	62.1048	782.0722	-0.0592	0.0182	-0.0073	-0.0462	0.0165	0.9585
8.2069	-0.55754	-1.4783	0.44988	0.42933	-0.5744	-2.2047	5.4143	769.3217	-60.0238	298.3804	59.8953	793.6394	-0.0592	0.0182	-0.0073	-0.0462	0.0165	0.9585
8.2203	-0.61661	-3.1222	0.4995	1.0264	-0.70338	-4.0299	9.176	782.0034	-59.6162	303.6571	57.597	801.2569	-0.0592	0.0182	-0.0073	-0.0462	0.0165	0.9585
8.2336	-0.60011	-5.2615	0.53653	1.7834	-0.7763	-6.4334	12.7347	788.861	-59.0406	306.6288	55.1788	803.1911	-0.0592	0.0182	-0.0073	-0.0462	0.0165	0.9585
8.247	-0.43993	-7.641	0.51483	2.6086	-0.71535	-9.1162	16.0103	788.9685	-58.2768	306.8943	52.654	798.6496	-0.0592	0.0182	-0.0073	-0.0462	0.0165	0.9585
8.2604	-0.036024	-9.7367	0.38741	3.3169	-0.42794	-11.4834	18.9033	782.4345	-57.3643	304.4627	50.1094	787.8849	-0.0592	0.0182	-0.0073	-0.0462	0.0165	0.9585
8.2737	0.7244	-10.6659	0.076279	3.6001	0.21354	-12.5177	21.3191	770.3567	-56.3994	299.7356	47.6927	772.1245	-0.0592	0.0182	-0.0073	-0.0462	0.0165	0.9585
8.2871	1.963	-9.1405	-0.50434	3.0074	1.3446	-10.7251	23.2152	754.5455	-55.5024	293.4048	45.5619	753.2629	-0.0592	0.0182	-0.0073	-0.0462	0.0165	0.9585
8.3004	3.7762	-3.4107	-1.4389	0.93116	3.0857	-4.0646	24.5755	737.0777	-54.7604	286.2793	43.8302	733.4244	-0.0592	0.0182	-0.0073	-0.0462	0.0165	0.9585
8.3138	6.1814	8.6408	-2.7816	-3.3646	5.4977	9.9476	25.4489	719.7646	-54.2059	279.0781	42.5329	714.4135	-0.0592	0.0182	-0.0073	-0.0462	0.0165	0.9585
8.3271	9.0732	29.2633	-4.5235	-10.6631	8.5222	33.9565	25.9151	703.7115	-53.7986	272.2581	41.6188	697.2973	-0.0592	0.0182	-0.0073	-0.0462	0.0165	0.9585
8.3405	12.1108	60.4185	-6.5453	-21.6386	11.8884	70.2809	26.0346	689.0671	-53.43	265.9133	40.9685	682.1775	-0.0592	0.0182	-0.0073	-0.0462	0.0165	0.9585
8.3539	14.6306	102.9894	-8.541	-36.5772	14.9974	119.971	25.8215	674.9776	-52.9246	259.7546	40.399	668.1477	-0.0592	0.0182	-0.0073	-0.0462	0.0165	0.9585
8.3672	15.524	155.6183	-9.9593	-54.9669	16.8115	181.463	25.2281	659.8169	-52.0786	253.192	39.7147	653.5357	-0.0592	0.0182	-0.0073	-0.0462	0.0165	0.9585
8.3806	13.2805	213.2779	-9.9161	-74.9934	15.7788	248.9255	24.2177	641.6069	-50.6939	245.5031	38.7265	636.3002	-0.0592	0.0182	-0.0073	-0.0462	0.0165	0.9585
8.3939	7.5445	267.4261	-7.2682	-93.5905	10.509	312.4742	22.805	618.6994	-48.6585	236.0938	37.3122	614.695	-0.0592	0.0182	-0.0073	-0.0462	0.0165	0.9585
